<svg xmlns="http://www.w3.org/2000/svg" data-name="Layer 1" viewBox="0 0 24 30" x="0px" y="0px"><path d="M12,2A10,10,0,0,0,6.44,20.31,10,10,0,0,0,22,12,10.016,10.016,0,0,0,12,2ZM7.56,18.65A5.838,5.838,0,0,1,7,18.23V18a5,5,0,0,1,5-5,3,3,0,1,1,3-3,3,3,0,0,1-3,3,4.985,4.985,0,0,1,5,5v.23a5.838,5.838,0,0,1-.56.42A8.089,8.089,0,0,1,7.56,18.65Z"/><text x="0" y="39" fill="#000000" font-size="5px" font-weight="bold" font-family="'Helvetica Neue', Helvetica, Arial-Unicode, Arial, Sans-serif">Created by Nira Inds</text><text x="0" y="44" fill="#000000" font-size="5px" font-weight="bold" font-family="'Helvetica Neue', Helvetica, Arial-Unicode, Arial, Sans-serif">from the Noun Project</text></svg>