<svg xmlns="http://www.w3.org/2000/svg" xmlns:xlink="http://www.w3.org/1999/xlink" viewBox="0 0 18 22.5" version="1.1" x="0px" y="0px"><title>settings</title><desc>Created with Sketch.</desc><g stroke="none" stroke-width="1" fill="none" fill-rule="evenodd"><path d="M17.1,7.49 L15.71,7.206 C15.577,7.18 15.473,7.081 15.433,6.952 C15.317,6.589 15.171,6.237 14.994,5.9 C14.93,5.78 14.934,5.637 15.009,5.523 L15.793,4.339 C16.088,3.893 16.028,3.301 15.65,2.923 L15.078,2.35 C14.699,1.972 14.107,1.912 13.662,2.207 L12.477,2.991 C12.363,3.065 12.22,3.069 12.099,3.006 C11.763,2.828 11.412,2.683 11.048,2.567 C10.919,2.526 10.821,2.423 10.794,2.29 L10.51,0.9 C10.403,0.376 9.942,0 9.408,0 L8.592,0 C8.058,0 7.597,0.376 7.49,0.9 L7.206,2.29 C7.179,2.423 7.081,2.526 6.952,2.567 C6.588,2.683 6.237,2.828 5.901,3.006 C5.78,3.069 5.637,3.065 5.523,2.991 L4.338,2.207 C3.893,1.912 3.301,1.972 2.922,2.35 L2.35,2.923 C1.972,3.301 1.912,3.893 2.207,4.339 L2.991,5.523 C3.066,5.637 3.07,5.78 3.006,5.9 C2.829,6.237 2.683,6.589 2.567,6.952 C2.527,7.081 2.423,7.18 2.29,7.206 L0.9,7.49 C0.376,7.597 0,8.058 0,8.593 L0,9.407 C0,9.942 0.376,10.403 0.9,10.51 L2.29,10.794 C2.423,10.82 2.527,10.919 2.567,11.048 C2.683,11.411 2.829,11.763 3.006,12.099 C3.07,12.22 3.066,12.363 2.991,12.477 L2.207,13.661 C1.912,14.107 1.972,14.699 2.35,15.077 L2.922,15.65 C3.3,16.028 3.893,16.088 4.338,15.793 L5.523,15.009 C5.637,14.934 5.78,14.931 5.901,14.994 C6.237,15.172 6.588,15.317 6.952,15.433 C7.081,15.473 7.179,15.577 7.206,15.709 L7.49,17.1 C7.597,17.624 8.058,18 8.592,18 L9.408,18 C9.942,18 10.403,17.624 10.51,17.1 L10.794,15.709 C10.821,15.577 10.919,15.473 11.048,15.433 C11.412,15.317 11.763,15.172 12.099,14.994 C12.22,14.931 12.363,14.934 12.477,15.009 L13.662,15.793 C14.107,16.088 14.7,16.028 15.078,15.65 L15.65,15.077 C16.028,14.699 16.088,14.107 15.793,13.661 L15.009,12.477 C14.934,12.363 14.93,12.22 14.994,12.099 C15.171,11.763 15.317,11.411 15.433,11.048 C15.473,10.919 15.577,10.82 15.71,10.794 L17.1,10.51 C17.624,10.403 18,9.942 18,9.407 L18,8.593 C18,8.058 17.624,7.597 17.1,7.49 M9,12 C7.343,12 6,10.657 6,9 C6,7.343 7.343,6 9,6 C10.657,6 12,7.343 12,9 C12,10.657 10.657,12 9,12" fill="#000000"/></g><text x="0" y="33" fill="#000000" font-size="5px" font-weight="bold" font-family="'Helvetica Neue', Helvetica, Arial-Unicode, Arial, Sans-serif">Created by Kevin White</text><text x="0" y="38" fill="#000000" font-size="5px" font-weight="bold" font-family="'Helvetica Neue', Helvetica, Arial-Unicode, Arial, Sans-serif">from the Noun Project</text></svg>